# Blender 4.0.1
# www.blender.org
mtllib sphere3.mtl
o Sphere
v -0.107517 0.838792 -0.540528
v -0.088102 -0.008211 -0.999782
v -0.074099 -0.562790 -0.826308
v -0.029493 0.924637 -0.388341
v 0.077222 0.628184 -0.784051
v 0.057919 0.301900 -0.959114
v 0.211712 0.098528 -0.977101
v 0.095563 -0.197140 -0.980385
v 0.088998 -0.385888 -0.922658
v 0.243875 -0.548469 -0.803951
v 0.381908 0.098313 -0.922007
v 0.164873 -0.830951 -0.534609
v 0.019948 0.981621 -0.202530
v 0.272674 0.778878 -0.579104
v 0.385242 0.487290 -0.794419
v 0.484208 -0.088966 -0.879647
v 0.428609 -0.378984 -0.824061
v 0.383607 -0.718498 -0.591826
v 0.579177 0.391797 -0.719220
v 0.622702 0.212795 -0.758764
v 0.787408 -0.000000 -0.623425
v 0.630658 -0.204561 -0.753321
v 0.532749 -0.562888 -0.637685
v 0.397822 0.834685 -0.391058
v 0.686881 0.503271 -0.537872
v 0.706035 -0.385203 -0.600455
v 0.209292 -0.926351 -0.329937
v 0.000000 1.000000 -0.000000
v 0.301172 0.932889 -0.235828
v 0.581256 0.717473 -0.397691
v 0.868253 0.197140 -0.465214
v 0.868253 -0.197140 -0.465214
v 0.695541 -0.633224 -0.359460
v 0.442263 -0.834889 -0.347961
v 0.801707 0.557974 -0.227921
v 0.882076 0.385203 -0.284560
v 0.966045 -0.000000 -0.274641
v 0.918663 -0.316658 -0.269816
v 0.555095 -0.836769 0.008386
v 0.764772 0.653956 -0.050543
v 1.000522 0.115511 -0.064524
v 0.923828 -0.385203 0.074657
v 0.775746 -0.638968 -0.072222
v 0.551784 0.842014 -0.044455
v 0.923828 0.385203 0.074657
v 0.980385 -0.197140 0.095565
v 0.384949 -0.929162 -0.008339
v 0.168447 -0.984947 -0.112553
v 0.681573 0.708715 0.193768
v 0.827053 0.497100 0.285319
v 0.942903 0.197140 0.284992
v 0.955819 0.000000 0.308350
v 0.894759 -0.291792 0.351487
v 0.744334 -0.638968 0.230140
v 0.370067 0.924637 0.121363
v 0.762067 0.197140 0.624132
v 0.456530 0.834055 0.321752
v 0.599604 0.638968 0.497466
v 0.726658 0.385203 0.575326
v 0.765061 0.000000 0.650654
v 0.762067 -0.197140 0.624132
v 0.689306 -0.475433 0.561978
v 0.197698 0.986420 0.025750
v 0.493932 0.473967 0.735457
v 0.541211 0.098529 0.840618
v 0.493932 -0.473967 0.735457
v 0.514405 -0.712804 0.489428
v 0.421656 -0.838086 0.366403
v 0.095717 -0.983075 0.179074
v 0.287952 0.712804 0.649027
v 0.465214 -0.197140 0.868253
v 0.227921 -0.557974 0.801707
v -0.025690 0.981636 0.200666
v 0.200835 0.834055 0.521161
v 0.227921 0.557974 0.801707
v 0.284560 0.385203 0.882076
v 0.286887 0.197140 0.942328
v 0.274641 0.000000 0.966044
v 0.284560 -0.385203 0.882076
v 0.191191 -0.777723 0.609921
v 0.224729 -0.926351 0.319622
v -0.093416 0.074357 1.001902
v 0.097535 -0.197140 0.980191
v 0.102623 0.932889 0.368494
v -0.080506 0.638968 0.774930
v -0.074657 0.385203 0.923828
v -0.284992 -0.197140 0.942903
v -0.074657 -0.385202 0.923828
v -0.080506 -0.638968 0.774930
v -0.284992 0.197140 0.942903
v -0.396471 -0.491477 0.786423
v -0.122553 -0.834056 0.544908
v -0.253743 0.924637 0.295453
v -0.174411 0.834889 0.535026
v -0.370931 0.638968 0.685134
v -0.422507 0.385203 0.824936
v -0.488896 0.000000 0.877297
v -0.706035 0.385203 0.600455
v -0.661850 0.115512 0.753101
v -0.570620 -0.313439 0.768509
v -0.379669 -0.712804 0.600003
v -0.404634 -0.834056 0.384987
v -0.139609 -0.929162 0.358838
v 0.000000 -1.000000 0.000000
v -0.604884 0.638968 0.491032
v -0.760811 -0.197140 0.625662
v -0.696720 -0.497100 0.529154
v -0.811793 0.480539 0.347680
v -0.868253 0.197140 0.465213
v -0.893902 0.000000 0.457830
v -0.492769 0.842014 0.252230
v -0.673017 0.711675 0.210147
v -1.000875 0.074358 0.103840
v -0.942328 -0.197140 0.286887
v -0.850226 -0.475433 0.260919
v -0.649027 -0.712804 0.287952
v -0.442991 -0.893458 0.139565
v -0.152575 -0.981636 0.132844
v -0.884792 0.475433 0.090034
v -0.980385 0.197140 -0.095565
v -0.706279 0.708715 -0.057076
v -0.956011 -0.313439 -0.047493
v -0.793221 -0.557974 -0.255895
v -0.760852 -0.656278 -0.043728
v -0.384949 0.929162 -0.008339
v -0.548445 0.831849 -0.119539
v -0.851896 0.475433 -0.255414
v -0.955818 -0.000000 -0.308350
v -0.942903 -0.197140 -0.284992
v -0.548445 -0.831849 -0.119539
v -0.600003 0.712804 -0.379669
v -0.737781 0.473967 -0.490454
v -0.867751 0.115513 -0.502210
v -0.824936 -0.385203 -0.422507
v -0.630674 -0.708715 -0.323013
v -0.198949 0.985942 -0.019595
v -0.623424 -0.000000 -0.787408
v -0.762067 -0.197140 -0.624132
v -0.634913 -0.557974 -0.539968
v -0.360201 -0.927993 -0.142649
v -0.265928 0.924550 -0.279499
v -0.391057 0.834685 -0.397822
v -0.566425 0.475433 -0.685657
v -0.625662 0.197140 -0.760811
v -0.600834 -0.316657 -0.745480
v -0.459056 -0.708715 -0.539774
v -0.386581 -0.836769 -0.398441
v -0.286888 -0.197141 -0.942327
v -0.379946 -0.557974 -0.741837
v -0.278965 0.718497 -0.647758
v -0.260919 0.475432 -0.850226
v -0.300908 0.127072 -0.953234
v -0.275777 -0.391922 -0.882854
v -0.217550 -0.708715 -0.674358
v -0.102780 -0.836302 -0.544661
v 0.057076 -0.708714 -0.706279
v -0.117581 -0.925922 -0.368665
v -0.147594 -0.984597 -0.138739
vn 0.0655 -0.7053 -0.7059
vn 0.1594 -0.8314 -0.5323
vn -0.1032 -0.8339 -0.5422
vn 0.0004 -1.0000 -0.0000
vn -0.1395 -0.9799 -0.1425
vn 0.1656 -0.9791 -0.1179
vn 0.0855 -0.3790 -0.9214
vn 0.2447 -0.5491 -0.7992
vn -0.0756 -0.5548 -0.8285
vn 0.3799 -0.7134 -0.5888
vn 0.4572 -0.8257 -0.3305
vn 0.4707 -0.0913 -0.8776
vn 0.6195 0.2059 -0.7576
vn 0.7802 0.0014 -0.6255
vn 0.0190 0.9783 -0.2061
vn -0.0004 1.0000 -0.0007
vn 0.2010 0.9791 0.0302
vn 0.6417 -0.2009 -0.7402
vn 0.7111 -0.3858 -0.5877
vn 0.4179 -0.3705 -0.8295
vn 0.8578 -0.1922 -0.4766
vn 0.5368 -0.5555 -0.6351
vn 0.6936 -0.6275 -0.3539
vn 0.3793 -0.9253 -0.0025
vn 0.1973 -0.9241 -0.3273
vn 0.8622 0.1988 -0.4660
vn 0.9620 -0.0000 -0.2732
vn 0.9101 -0.3278 -0.2536
vn 0.7697 -0.6329 -0.0832
vn 0.8879 0.3688 -0.2751
vn 0.9916 0.1132 -0.0627
vn 0.9126 -0.4033 0.0663
vn 0.7367 -0.6329 0.2379
vn 0.9208 0.3860 0.0556
vn 0.9322 0.2039 0.2990
vn 0.9464 -0.0064 0.3230
vn 0.1016 -0.9786 0.1787
vn 0.8845 -0.2961 0.3605
vn 0.9818 -0.1749 0.0747
vn 0.5902 0.6394 0.4928
vn 0.2870 0.7114 0.6415
vn 0.5014 0.4539 0.7366
vn 0.7289 0.3809 0.5689
vn -0.0346 0.9787 0.2024
vn 0.2053 0.5579 0.8041
vn 0.1945 0.8255 0.5299
vn 0.1044 0.9255 0.3640
vn -0.1792 0.8277 0.5317
vn -0.2539 0.9190 0.3015
vn -0.3793 0.6325 0.6754
vn -0.0728 0.6336 0.7703
vn -0.1289 -0.9243 0.3593
vn -0.1711 -0.9766 0.1301
vn -0.0800 0.0667 0.9946
vn -0.3040 0.1922 0.9331
vn -0.4821 -0.0016 0.8761
vn -0.4267 0.3876 0.8171
vn -0.6568 0.1132 0.7455
vn -0.5697 -0.2958 0.7668
vn -0.2807 -0.1913 0.9405
vn -0.3876 -0.4908 0.7803
vn -0.4853 0.8338 0.2632
vn -0.6919 -0.4945 0.5260
vn -0.1930 0.9810 -0.0185
vn -0.4062 -0.8269 0.3889
vn -0.4462 -0.8849 0.1338
vn -0.6887 0.3867 0.6133
vn -0.8714 0.2089 0.4439
vn -0.8894 -0.0082 0.4571
vn -0.7656 -0.1936 0.6135
vn -0.6445 -0.7102 0.2832
vn -0.3920 -0.7021 0.5945
vn -0.6802 0.7066 0.1950
vn -0.5826 0.6430 0.4972
vn -0.8199 0.4616 0.3387
vn -0.9352 -0.2040 0.2895
vn -0.3939 0.9191 -0.0054
vn -0.8842 0.4575 0.0939
vn -0.8473 -0.4638 0.2589
vn -0.9511 -0.3057 -0.0444
vn -0.7577 -0.6522 -0.0232
vn -0.9913 0.0716 0.1102
vn -0.9725 0.2018 -0.1159
vn -0.5475 0.8286 -0.1168
vn -0.9562 0.0023 -0.2926
vn -0.8020 -0.5410 -0.2532
vn -0.7109 0.7011 -0.0551
vn -0.8506 0.4618 -0.2514
vn -0.6270 -0.7088 -0.3233
vn -0.8569 0.1251 -0.5000
vn -0.9403 -0.1940 -0.2797
vn -0.8229 -0.3797 -0.4227
vn -0.5984 0.7016 -0.3868
vn -0.2635 0.9247 -0.2747
vn -0.6380 -0.5446 -0.5444
vn -0.7407 0.4536 -0.4956
vn -0.5632 -0.8193 -0.1073
vn -0.3795 -0.8357 -0.3971
vn -0.5528 0.4718 -0.6868
vn -0.6159 0.2170 -0.7573
vn -0.6076 -0.0127 -0.7941
vn -0.7751 -0.1871 -0.6035
vn -0.5841 -0.3171 -0.7472
vn -0.4538 -0.7047 -0.5454
vn -0.3879 -0.5518 -0.7383
vn -0.3922 0.8265 -0.4039
vn -0.2881 0.7050 -0.6480
vn -0.1056 -0.9267 -0.3607
vn -0.3529 -0.9250 -0.1410
vn -0.2220 -0.7086 -0.6698
vn -0.2604 0.4591 -0.8494
vn -0.2658 -0.3872 -0.8828
vn 0.3834 0.1353 -0.9136
vn 0.5761 0.3865 -0.7202
vn 0.3793 0.4818 -0.7900
vn 0.5791 0.7082 -0.4038
vn 0.6755 0.5017 -0.5404
vn 0.5678 -0.8231 0.0084
vn 0.7971 0.5576 -0.2318
vn 0.8213 0.4896 0.2929
vn 0.2125 -0.9218 0.3241
vn 0.7630 0.2030 0.6137
vn 0.2782 0.3736 0.8849
vn -0.0645 0.3879 0.9194
vn -0.2945 -0.1883 -0.9369
vn -0.3162 0.1406 -0.9382
vn -0.0917 0.8303 -0.5497
vn -0.0098 0.9193 -0.3934
vn -0.0795 -0.0072 -0.9968
vn 0.5470 0.8355 -0.0520
vn 0.7628 0.6446 -0.0516
vn 0.6741 0.7108 0.2008
vn 0.4513 0.8301 0.3275
vn 0.3722 0.9190 0.1302
vn 0.4019 0.8302 -0.3862
vn 0.4304 -0.8353 0.3422
vn 0.5469 0.1079 0.8302
vn 0.2715 0.2084 0.9396
vn 0.2655 -0.0120 0.9640
vn 0.4793 -0.1927 0.8562
vn 0.2704 -0.3720 0.8880
vn 0.4912 -0.4768 0.7290
vn 0.2241 -0.5709 0.7898
vn 0.0935 -0.1951 0.9763
vn -0.0728 -0.3868 0.9193
vn -0.0778 -0.6319 0.7711
vn 0.1940 -0.7714 0.6061
vn -0.1054 -0.8305 0.5470
vn 0.6920 -0.4677 0.5500
vn 0.5121 -0.6963 0.5029
vn 0.7542 -0.1983 0.6260
vn 0.7666 -0.0093 0.6420
vn 0.0593 0.3121 -0.9482
vn 0.2133 0.1018 -0.9717
vn 0.2721 0.7676 -0.5803
vn 0.0679 0.6211 -0.7808
vn 0.2949 0.9252 -0.2387
vn 0.1057 -0.1954 -0.9750
vt 0.737176 0.250000
vt 0.702383 0.187500
vt 0.779637 0.187500
vt 0.734375 0.000000
vt 0.879629 0.062500
vt 0.593677 0.062500
vt 0.734697 0.375000
vt 0.703125 0.312500
vt 0.764235 0.312500
vt 0.658359 0.250000
vt 0.606077 0.187500
vt 0.670132 0.472235
vt 0.640625 0.562500
vt 0.606567 0.500000
vt 0.734224 0.937500
vt 0.640625 1.000000
vt 0.479138 0.937500
vt 0.639064 0.437500
vt 0.612180 0.375000
vt 0.673680 0.375000
vt 0.578286 0.437500
vt 0.639230 0.312500
vt 0.577540 0.283466
vt 0.503540 0.125000
vt 0.660224 0.125000
vt 0.578286 0.562500
vt 0.544067 0.500000
vt 0.543444 0.396147
vt 0.515588 0.281661
vt 0.549680 0.625000
vt 0.509405 0.537235
vt 0.487179 0.375000
vt 0.453088 0.281661
vt 0.487180 0.625000
vt 0.453286 0.562500
vt 0.450317 0.500000
vt 0.328120 0.062500
vt 0.453125 0.000000
vt 0.437500 0.406180
vt 0.484536 0.437500
vt 0.390588 0.718339
vt 0.316528 0.750000
vt 0.343750 0.656371
vt 0.393429 0.625000
vt 0.328125 1.000000
vt 0.230145 0.937500
vt 0.294073 0.687500
vt 0.308534 0.812500
vt 0.293360 0.875000
vt 0.199790 0.812500
vt 0.137012 0.875000
vt 0.171838 0.718339
vt 0.234338 0.718339
vt 0.190964 0.125000
vt 0.113605 0.062500
vt 0.237635 0.520573
vt 0.203286 0.562500
vt 0.169067 0.500000
vt 0.203125 0.000000
vt 0.174680 0.625000
vt 0.134405 0.537235
vt 0.148421 0.399333
vt 0.203286 0.437500
vt 0.176363 0.337227
vt 0.075252 0.812500
vt 0.102021 0.334687
vt 0.140625 1.000000
vt 0.030235 0.937500
vt 0.121065 0.187500
vt 0.055088 0.153620
vt 0.112179 0.625000
vt 0.078286 0.562500
vt 0.075317 0.500000
vt 0.109536 0.437500
vt 0.066529 0.250000
vt 0.160279 0.250000
vt 0.048167 0.750000
vt 0.108913 0.719958
vt 0.062500 0.658651
vt 0.047036 0.437500
vt 0.032456 0.875000
vt 0.015664 0.655822
vt 0.046914 0.344178
vt 0.000000 0.399333
vt 0.000000 0.273040
vt 0.018885 0.520574
vt 0.000000 0.562500
vt 0.015625 0.000000
vt 0.000000 0.062500
vt 0.000000 0.812500
vt 1.000000 0.500000
vt 0.984536 0.562500
vt 0.950317 0.500000
vt 0.991904 0.273040
vt 0.992171 0.399333
vt 0.950323 0.312500
vt 1.000000 0.655822
vt 0.987176 0.750000
vt 0.953164 0.655822
vt 0.924676 0.250000
vt 0.915655 0.537235
vt 0.953286 0.437500
vt 0.924679 0.375000
vt 0.965747 0.812500
vt 0.910279 0.750000
vt 0.978825 0.875000
vt 0.921769 0.937500
vt 0.871079 0.875000
vt 0.887823 0.312500
vt 0.906250 0.656371
vt 0.965747 0.187500
vt 0.872588 0.187500
vt 0.859414 0.655822
vt 0.859536 0.562500
vt 0.856567 0.500000
vt 0.890786 0.437500
vt 0.855944 0.396148
vt 0.862176 0.250000
vt 0.825323 0.312500
vt 0.873622 0.812500
vt 0.814726 0.750000
vt 0.799126 0.125000
vt 0.939862 0.125000
vt 0.828125 1.000000
vt 0.799676 0.250000
vt 0.796945 0.653777
vt 0.798190 0.375000
vt 0.687500 0.531257
vt 0.642102 0.625000
vt 0.678319 0.660608
vt 0.595563 0.750000
vt 0.603325 0.667055
vt 0.497588 0.187500
vt 0.544073 0.687500
vt 0.445771 0.665313
vt 0.347717 0.125000
vt 0.390786 0.562500
vt 0.299680 0.625000
vt 0.237180 0.625000
vt 0.000000 0.750000
vt 0.000000 0.187500
vt 0.000000 0.125000
vt 0.797036 0.437500
vt 0.801816 0.543181
vt 0.781230 0.812500
vt 0.762032 0.875000
vt 0.763980 0.500000
vt 0.512752 0.812500
vt 0.510998 0.724803
vt 0.455926 0.750000
vt 0.402284 0.812500
vt 0.449506 0.875000
vt 0.623673 0.812500
vt 0.386121 0.187500
vt 0.343750 0.531273
vt 0.297036 0.562500
vt 0.294067 0.500000
vt 0.328286 0.437500
vt 0.299679 0.375000
vt 0.343750 0.343629
vt 0.294073 0.312500
vt 0.265786 0.437500
vt 0.237180 0.375000
vt 0.234338 0.281661
vt 0.296902 0.219059
vt 0.214815 0.187500
vt 0.390665 0.344178
vt 0.378980 0.250000
vt 0.390786 0.437500
vt 0.387817 0.500000
vt 0.741874 0.599249
vt 0.718750 0.531273
vt 0.685473 0.777944
vt 0.734375 0.717281
vt 0.605595 0.875000
vt 0.734536 0.437500
s 1
usemtl Material.002
f 156/1/1 12/2/2 155/3/3
f 139/109/95 146/118/104 135/100/89
f 137/115/101 145/117/103 138/116/102
f 139/109/95 145/117/103 149/119/105
f 142/120/106 150/121/107 131/105/93
f 147/112/98 157/122/108 140/123/109
f 104/4/4 158/5/5 48/6/6
f 9/7/7 10/8/8 3/9/9
f 10/8/8 18/10/10 156/1/1
f 12/2/2 18/10/10 34/11/11
f 16/12/12 20/13/13 21/14/14
f 13/15/15 28/16/16 63/17/17
f 22/18/18 26/19/19 17/20/20
f 21/14/14 32/21/21 22/18/18
f 23/22/22 26/19/19 33/23/23
f 23/22/22 33/23/23 18/10/10
f 34/11/11 47/24/24 27/25/25
f 21/14/14 31/26/26 37/27/27
f 32/21/21 38/28/28 26/19/19
f 33/23/23 38/28/28 43/29/29
f 31/26/26 36/30/30 41/31/31
f 37/27/27 38/28/28 32/21/21
f 43/29/29 42/32/32 54/33/33
f 41/31/31 45/34/34 51/35/35
f 41/31/31 51/35/35 52/36/36
f 48/6/6 47/24/24 69/37/37
f 104/38/4 48/6/6 69/37/37
f 52/36/36 53/39/38 46/40/39
f 46/40/39 53/39/38 42/32/32
f 58/41/40 70/42/41 64/43/42
f 58/41/40 64/43/42 59/44/43
f 63/17/17 28/45/16 73/46/44
f 64/43/42 70/42/41 75/47/45
f 74/48/46 84/49/47 94/50/48
f 84/49/47 73/46/44 93/51/49
f 94/50/48 95/52/50 85/53/51
f 103/54/52 118/55/53 69/37/37
f 82/56/54 90/57/55 97/58/56
f 104/59/4 69/37/37 118/55/53
f 90/57/55 96/60/57 99/61/58
f 97/58/56 100/62/59 87/63/60
f 87/63/60 100/62/59 91/64/61
f 93/51/49 111/65/62 94/50/48
f 91/64/61 100/62/59 107/66/63
f 73/46/44 28/67/16 136/68/64
f 102/69/65 117/70/66 103/54/52
f 99/61/58 98/71/67 109/72/68
f 99/61/58 109/72/68 110/73/69
f 106/74/70 107/66/63 100/62/59
f 107/66/63 116/75/71 101/76/72
f 111/65/62 112/77/73 105/78/74
f 102/69/65 116/75/71 117/70/66
f 105/78/74 108/79/75 98/71/67
f 110/73/69 114/80/76 106/74/70
f 136/68/64 125/81/77 93/51/49
f 108/79/75 112/77/73 119/82/78
f 115/83/79 122/84/80 124/85/81
f 115/83/79 124/85/81 116/75/71
f 113/86/82 119/82/78 120/87/83
f 104/88/4 118/55/53 158/89/5
f 113/86/82 122/84/80 114/80/76
f 114/80/76 122/84/80 115/83/79
f 111/65/62 125/81/77 126/90/84
f 113/91/82 120/92/83 128/93/85
f 124/94/81 122/95/80 123/96/86
f 119/97/78 121/98/87 127/99/88
f 123/96/86 135/100/89 124/94/81
f 120/92/83 127/99/88 133/101/90
f 129/102/91 134/103/92 122/95/80
f 126/104/84 131/105/93 121/98/87
f 125/106/77 136/107/64 141/108/94
f 123/96/86 134/103/92 139/109/95
f 127/99/88 131/105/93 132/110/96
f 130/111/97 135/100/89 147/112/98
f 132/110/96 131/105/93 143/113/99
f 133/101/90 144/114/100 137/115/101
f 138/116/102 145/117/103 134/103/92
f 136/107/64 28/124/16 13/15/15
f 149/119/105 154/125/110 146/118/104
f 143/113/99 150/121/107 151/126/111
f 149/119/105 153/127/112 3/9/9
f 3/9/9 156/1/1 154/125/110
f 48/6/6 157/122/108 27/25/25
f 3/9/9 10/8/8 156/1/1
f 12/2/2 156/1/1 18/10/10
f 11/128/113 19/129/114 20/13/13
f 9/7/7 17/20/20 10/8/8
f 18/10/10 10/8/8 23/22/22
f 12/2/2 34/11/11 27/25/25
f 15/130/115 30/131/116 25/132/117
f 11/128/113 20/13/13 16/12/12
f 25/132/117 20/13/13 19/129/114
f 15/130/115 25/132/117 19/129/114
f 16/12/12 21/14/14 22/18/18
f 23/22/22 17/20/20 26/19/19
f 22/18/18 32/21/21 26/19/19
f 18/10/10 33/23/23 34/11/11
f 39/133/118 33/23/23 43/29/29
f 21/14/14 20/13/13 31/26/26
f 25/132/117 35/134/119 36/30/30
f 31/26/26 25/132/117 36/30/30
f 48/6/6 27/25/25 47/24/24
f 21/14/14 37/27/27 32/21/21
f 33/23/23 26/19/19 38/28/28
f 46/40/39 37/27/27 41/31/31
f 37/27/27 31/26/26 41/31/31
f 41/31/31 36/30/30 45/34/34
f 38/28/28 46/40/39 42/32/32
f 43/29/29 38/28/28 42/32/32
f 41/31/31 52/36/36 46/40/39
f 51/35/35 45/34/34 50/135/120
f 47/24/24 81/136/121 69/37/37
f 64/43/42 56/137/122 59/44/43
f 63/17/17 73/46/44 84/49/47
f 64/43/42 75/47/45 76/138/123
f 85/53/51 74/48/46 94/50/48
f 86/139/124 75/47/45 85/53/51
f 75/47/45 70/42/41 85/53/51
f 96/60/57 85/53/51 95/52/50
f 69/37/37 81/136/121 103/54/52
f 84/49/47 93/51/49 94/50/48
f 105/78/74 94/50/48 111/65/62
f 90/57/55 86/139/124 96/60/57
f 82/56/54 97/58/56 87/63/60
f 97/58/56 90/57/55 99/61/58
f 98/71/67 95/52/50 105/78/74
f 91/64/61 107/66/63 101/76/72
f 106/74/70 97/58/56 99/61/58
f 99/61/58 96/60/57 98/71/67
f 107/66/63 114/80/76 115/83/79
f 73/46/44 136/68/64 93/51/49
f 103/54/52 117/70/66 118/55/53
f 99/61/58 110/73/69 106/74/70
f 102/69/65 101/76/72 116/75/71
f 93/51/49 125/81/77 111/65/62
f 107/66/63 115/83/79 116/75/71
f 105/78/74 112/77/73 108/79/75
f 109/72/68 98/71/67 108/79/75
f 119/82/78 109/72/68 108/79/75
f 112/77/73 126/90/84 121/140/87
f 110/73/69 109/72/68 113/86/82
f 110/73/69 113/86/82 114/80/76
f 157/122/108 12/2/2 27/25/25
f 130/141/97 116/75/71 124/85/81
f 119/82/78 112/77/73 121/140/87
f 118/55/53 140/142/109 158/89/5
f 117/70/66 130/141/97 140/142/109
f 129/102/91 113/91/82 128/93/85
f 138/116/102 128/93/85 133/101/90
f 120/92/83 119/97/78 127/99/88
f 127/99/88 121/98/87 131/105/93
f 130/111/97 124/94/81 135/100/89
f 128/93/85 120/92/83 133/101/90
f 123/96/86 122/95/80 134/103/92
f 126/104/84 141/108/94 142/120/106
f 129/102/91 138/116/102 134/103/92
f 144/114/100 132/110/96 143/113/99
f 126/104/84 142/120/106 131/105/93
f 123/96/86 139/109/95 135/100/89
f 140/123/109 130/111/97 147/112/98
f 133/101/90 127/99/88 132/110/96
f 147/112/98 135/100/89 146/118/104
f 154/125/110 147/112/98 146/118/104
f 133/101/90 137/115/101 138/116/102
f 139/109/95 134/103/92 145/117/103
f 139/109/95 149/119/105 146/118/104
f 143/113/99 131/105/93 150/121/107
f 140/123/109 157/122/108 158/5/5
f 151/126/111 144/114/100 143/113/99
f 147/112/98 155/3/3 157/122/108
f 148/143/125 137/115/101 152/144/126
f 137/115/101 144/114/100 152/144/126
f 1/145/127 141/108/94 4/146/128
f 145/117/103 148/143/125 153/127/112
f 149/119/105 145/117/103 153/127/112
f 142/120/106 1/145/127 150/121/107
f 149/119/105 3/9/9 154/125/110
f 152/144/126 2/147/129 148/143/125
f 153/127/112 9/7/7 3/9/9
f 155/3/3 154/125/110 156/1/1
f 151/126/111 152/144/126 144/114/100
f 48/6/6 158/5/5 157/122/108
f 11/128/113 15/130/115 19/129/114
f 15/130/115 14/173/155 30/131/116
f 25/132/117 31/26/26 20/13/13
f 39/133/118 34/11/11 33/23/23
f 46/40/39 38/28/28 37/27/27
f 64/43/42 65/155/137 56/137/122
f 85/53/51 70/42/41 74/48/46
f 86/139/124 76/138/123 75/47/45
f 96/60/57 86/139/124 85/53/51
f 105/78/74 95/52/50 94/50/48
f 98/71/67 96/60/57 95/52/50
f 106/74/70 100/62/59 97/58/56
f 107/66/63 106/74/70 114/80/76
f 119/82/78 113/86/82 109/72/68
f 112/77/73 111/65/62 126/90/84
f 157/122/108 155/3/3 12/2/2
f 130/141/97 117/70/66 116/75/71
f 118/55/53 117/70/66 140/142/109
f 129/102/91 122/95/80 113/91/82
f 138/116/102 129/102/91 128/93/85
f 126/104/84 125/106/77 141/108/94
f 144/114/100 133/101/90 132/110/96
f 154/125/110 155/3/3 147/112/98
f 148/143/125 145/117/103 137/115/101
f 1/145/127 142/120/106 141/108/94
usemtl Material.003
f 25/132/117 30/131/116 35/134/119
f 44/148/130 40/149/131 30/131/116
f 44/148/130 49/150/132 40/149/131
f 40/149/131 49/150/132 50/135/120
f 57/151/133 58/41/40 49/150/132
f 63/17/17 84/49/47 55/152/134
f 57/151/133 84/49/47 74/48/46
f 24/153/135 44/148/130 30/131/116
f 35/134/119 30/131/116 40/149/131
f 45/34/34 35/134/119 40/149/131
f 40/149/131 50/135/120 45/34/34
f 44/148/130 57/151/133 49/150/132
f 50/135/120 49/150/132 58/41/40
f 50/135/120 58/41/40 59/44/43
f 70/42/41 57/151/133 74/48/46
f 55/152/134 84/49/47 57/151/133
f 45/34/34 36/30/30 35/134/119
f 70/42/41 58/41/40 57/151/133
usemtl Material.004
f 39/133/118 54/33/33 68/154/136
f 68/154/136 81/136/121 47/24/24
f 65/155/137 77/156/138 78/157/139
f 71/158/140 79/159/141 66/160/142
f 66/160/142 79/159/141 72/161/143
f 78/157/139 83/162/144 71/158/140
f 83/162/144 88/163/145 79/159/141
f 72/161/143 89/164/146 80/165/147
f 80/165/147 89/164/146 92/166/148
f 82/56/54 86/139/124 90/57/55
f 82/56/54 87/63/60 83/162/144
f 87/63/60 91/64/61 88/163/145
f 92/166/148 101/76/72 102/69/65
f 47/24/24 34/11/11 39/133/118
f 59/44/43 51/35/35 50/135/120
f 39/133/118 43/29/29 54/33/33
f 54/33/33 42/32/32 53/39/38
f 39/133/118 68/154/136 47/24/24
f 54/33/33 53/39/38 62/167/149
f 54/33/33 62/167/149 67/168/150
f 68/154/136 54/33/33 67/168/150
f 56/137/122 52/36/36 51/35/35
f 61/169/151 52/36/36 60/170/152
f 53/39/38 61/169/151 62/167/149
f 62/167/149 66/160/142 67/168/150
f 71/158/140 60/170/152 65/155/137
f 60/170/152 56/137/122 65/155/137
f 66/160/142 61/169/151 71/158/140
f 67/168/150 72/161/143 80/165/147
f 65/155/137 78/157/139 71/158/140
f 76/138/123 65/155/137 64/43/42
f 68/154/136 67/168/150 80/165/147
f 68/154/136 80/165/147 81/136/121
f 88/163/145 72/161/143 79/159/141
f 71/158/140 83/162/144 79/159/141
f 78/157/139 82/56/54 83/162/144
f 81/136/121 92/166/148 103/54/52
f 86/139/124 77/156/138 76/138/123
f 78/157/139 77/156/138 82/56/54
f 83/162/144 87/63/60 88/163/145
f 89/164/146 88/163/145 91/64/61
f 89/164/146 91/64/61 101/76/72
f 92/166/148 89/164/146 101/76/72
f 92/166/148 102/69/65 103/54/52
f 59/44/43 56/137/122 51/35/35
f 56/137/122 60/170/152 52/36/36
f 61/169/151 53/39/38 52/36/36
f 71/158/140 61/169/151 60/170/152
f 66/160/142 62/167/149 61/169/151
f 67/168/150 66/160/142 72/161/143
f 76/138/123 77/156/138 65/155/137
f 88/163/145 89/164/146 72/161/143
f 81/136/121 80/165/147 92/166/148
f 86/139/124 82/56/54 77/156/138
usemtl Material.005
f 6/171/153 7/172/154 2/147/129
f 1/145/127 4/146/128 14/173/155
f 5/174/156 15/130/115 6/171/153
f 13/15/15 29/175/157 4/146/128
f 29/175/157 24/153/135 14/173/155
f 10/8/8 17/20/20 23/22/22
f 24/153/135 30/131/116 14/173/155
f 29/175/157 44/148/130 24/153/135
f 29/175/157 63/17/17 55/152/134
f 44/148/130 55/152/134 57/151/133
f 151/126/111 5/174/156 6/171/153
f 2/147/129 8/176/158 148/143/125
f 150/121/107 1/145/127 5/174/156
f 11/128/113 6/171/153 15/130/115
f 2/147/129 7/172/154 8/176/158
f 5/174/156 1/145/127 14/173/155
f 5/174/156 14/173/155 15/130/115
f 16/12/12 7/172/154 11/128/113
f 17/20/20 8/176/158 16/12/12
f 4/146/128 29/175/157 14/173/155
f 16/12/12 22/18/18 17/20/20
f 13/15/15 63/17/17 29/175/157
f 29/175/157 55/152/134 44/148/130
f 13/15/15 141/108/94 136/107/64
f 9/7/7 148/143/125 8/176/158
f 152/144/126 151/126/111 6/171/153
f 2/147/129 152/144/126 6/171/153
f 151/126/111 150/121/107 5/174/156
f 11/128/113 7/172/154 6/171/153
f 16/12/12 8/176/158 7/172/154
f 17/20/20 9/7/7 8/176/158
f 13/15/15 4/146/128 141/108/94
f 9/7/7 153/127/112 148/143/125
